<?xml version="1.0" encoding="UTF-8" standalone="no"?>
<svg
   xmlns:dc="http://purl.org/dc/elements/1.1/"
   xmlns:cc="http://creativecommons.org/ns#"
   xmlns:rdf="http://www.w3.org/1999/02/22-rdf-syntax-ns#"
   xmlns:svg="http://www.w3.org/2000/svg"
   xmlns="http://www.w3.org/2000/svg"
   width="280"
   height="120"
   viewBox="0 0 74.083329 31.750001"
   version="1.1"
   id="svg8">
  <defs
     id="defs2">
    <style
       id="style882"
       type="text/css"><![CDATA[
    .fil0 {fill:#F0B51F}
    .fil4 {fill:url(#id0)}
    .fil1 {fill:url(#id1)}
    .fil2 {fill:url(#id2)}
    .fil3 {fill:url(#id3)}
    .fil5 {fill:url(#id4)}
   ]]></style>
    <clipPath
       clipPathUnits="userSpaceOnUse"
       id="clipPath14935-5">
      <path
         d="m 0,0 595.276,0 0,841.89 L 0,841.89 0,0 Z"
         id="path14937-5" />
    </clipPath>
    <clipPath
       clipPathUnits="userSpaceOnUse"
       id="clipPath14917-5-3">
      <path
         d="m 0,0 595.276,0 0,841.89 L 0,841.89 0,0 Z"
         id="path14919-3-8" />
    </clipPath>
  </defs>
  <metadata
     id="metadata5">
    <rdf:RDF>
      <cc:Work
         rdf:about="">
        <dc:format>image/svg+xml</dc:format>
        <dc:type
           rdf:resource="http://purl.org/dc/dcmitype/StillImage" />
        <dc:title></dc:title>
      </cc:Work>
    </rdf:RDF>
  </metadata>
  <g
     transform="matrix(1.1056204,0,0,1.1056204,-1.3200687,-8.5117312)"
     id="g25250">
    <g
       style="fill:#015bd7;fill-opacity:1"
       transform="matrix(0.25547821,0,0,-0.2554782,-65.156774,205.72828)"
       clip-path="url(#clipPath14935-5)"
       id="g14933">
      <g
         style="fill:#015bd7;fill-opacity:1"
         transform="translate(287.6279,697.5566)"
         id="g14943">
        <path
           id="path14945"
           style="fill:#1b5089;fill-opacity:1;fill-rule:nonzero;stroke:none"
           d="M 0,0 C 14.669,21.042 30.939,43.09 46.232,63.746 43.69,68.673 38.565,72.05 32.636,72.05 h -45.255 c -8.446,0 -15.297,-6.849 -15.297,-15.297 v -70.757 c 0,-8.446 6.851,-15.297 15.297,-15.297 h 7.988 C -10.264,-15.495 -16.473,-1.69 -24.448,12.113 -14.082,8.627 -6.214,4.522 0,0" />
      </g>
      <g
         style="fill:#015bd7;fill-opacity:1"
         transform="translate(290.2909,668.2556)"
         id="g14947">
        <path
           id="path14949"
           style="fill:#1b5089;fill-opacity:1;fill-rule:nonzero;stroke:none"
           d="m 0,0 h 29.973 c 8.451,0 15.299,6.851 15.299,15.297 v 70.757 c 0,0.341 -0.029,0.67 -0.051,1.005 C 30.788,61.557 15.148,35.138 0,0" />
      </g>
    </g>
    <g
       id="g25213"
       transform="matrix(1.1759117,0,0,1.1759117,-4.2794087,-4.1384575)">
      <g
         id="g14913"
         transform="matrix(0.44988181,0,0,-0.44988178,-89.212524,309.84024)">
        <g
           id="g14915"
           clip-path="url(#clipPath14917-5-3)">
          <g
             id="g14921"
             transform="translate(263.9604,634.2012)">
            <path
               d="m 0,0 c 0.156,1.866 0.282,3.882 0.36,6.041 0.079,2.159 0.122,4.491 0.122,6.994 0,2.804 -0.035,5.256 -0.113,7.359 C 0.299,22.5 0.17,24.413 0,26.131 c 0.321,-0.053 0.668,-0.084 1.031,-0.112 0.371,-0.028 0.768,-0.036 1.191,-0.036 0.431,0 0.833,0.008 1.202,0.036 0.369,0.028 0.715,0.059 1.036,0.112 C 4.374,24.625 4.307,23.053 4.265,21.428 4.22,19.794 4.201,17.908 4.201,15.766 4.201,12.205 4.209,9.331 4.237,7.156 4.265,4.977 4.296,3.268 4.35,2.036 h 3.864 c 1.045,0 2.098,0.053 3.151,0.156 1.052,0.112 2.104,0.266 3.164,0.481 C 14.49,2.447 14.462,2.22 14.442,1.989 14.427,1.762 14.414,1.533 14.414,1.31 14.414,1.07 14.427,0.849 14.442,0.637 14.462,0.425 14.49,0.212 14.529,0 13.395,0.036 12.236,0.064 11.055,0.089 9.873,0.103 8.669,0.115 7.449,0.115 6.244,0.115 5.013,0.103 3.77,0.089 2.525,0.064 1.268,0.036 0,0"
               style="fill:#5d6161;fill-opacity:1;fill-rule:nonzero;stroke:none"
               id="path14923" />
          </g>
          <g
             id="g14925"
             transform="translate(281.5881,634.2012)">
            <path
               d="m 0,0 c 0.161,1.866 0.283,3.882 0.364,6.041 0.08,2.159 0.121,4.491 0.121,6.994 0,2.804 -0.037,5.256 -0.112,7.359 C 0.299,22.5 0.177,24.413 0,26.131 c 0.323,-0.053 0.672,-0.084 1.038,-0.112 0.364,-0.028 0.761,-0.036 1.181,-0.036 0.44,0 0.841,0.008 1.209,0.036 0.369,0.028 0.711,0.059 1.037,0.112 C 4.379,24.625 4.312,23.053 4.269,21.428 4.222,19.794 4.202,17.908 4.202,15.766 4.202,12.205 4.215,9.331 4.238,7.156 4.261,4.977 4.3,3.268 4.351,2.036 H 8.22 c 1.046,0 2.093,0.053 3.142,0.156 1.057,0.112 2.113,0.266 3.168,0.481 C 14.495,2.447 14.463,2.22 14.448,1.989 14.428,1.762 14.421,1.533 14.421,1.31 14.421,1.07 14.428,0.849 14.448,0.637 14.463,0.425 14.495,0.212 14.53,0 13.396,0.036 12.24,0.064 11.056,0.089 9.873,0.103 8.671,0.115 7.45,0.115 6.244,0.115 5.019,0.103 3.775,0.089 2.526,0.064 1.269,0.036 0,0"
               style="fill:#5d6161;fill-opacity:1;fill-rule:nonzero;stroke:none"
               id="path14927" />
          </g>
        </g>
      </g>
      <path
         d="m 44.166636,19.600375 h 4.150151 v 1.47876 h -4.150151 z"
         style="fill:#5d6161;fill-opacity:1;fill-rule:nonzero;stroke:none"
         id="path14929" />
      <g
         id="g14939"
         transform="matrix(0.44988181,0,0,-0.44988178,59.717652,15.230347)">
        <path
           d="m 0,0 h -0.409 c -0.848,1.422 -1.908,2.472 -3.184,3.164 -1.277,0.69 -2.793,1.037 -4.544,1.037 -3.028,0 -5.396,-1.028 -7.108,-3.084 -1.712,-2.053 -2.568,-4.896 -2.568,-8.532 0,-3.626 0.895,-6.508 2.677,-8.647 1.787,-2.145 4.175,-3.215 7.163,-3.215 1.545,0 3.002,0.324 4.36,0.964 1.366,0.639 2.662,1.622 3.896,2.941 l 0.432,-0.204 C 0.6,-16.079 0.51,-16.585 0.451,-17.112 0.39,-17.635 0.345,-18.177 0.323,-18.735 c -1.486,-0.832 -2.969,-1.453 -4.469,-1.86 -1.494,-0.402 -3.033,-0.606 -4.628,-0.606 -4.185,0 -7.468,1.209 -9.856,3.644 -2.38,2.428 -3.575,5.751 -3.575,9.977 0,4.17 1.256,7.451 3.763,9.856 2.51,2.402 5.946,3.606 10.305,3.606 1.516,0 3.027,-0.17 4.535,-0.503 C -2.096,5.041 -0.546,4.522 1.052,3.823 0.786,3.304 0.574,2.729 0.404,2.095 0.236,1.466 0.102,0.768 0,0"
           style="fill:#5d6161;fill-opacity:1;fill-rule:nonzero;stroke:none"
           id="path14941" />
      </g>
      <g
         id="g14951"
         transform="matrix(0.44988181,0,0,-0.44988178,31.885581,28.346963)">
        <path
           d="m 0,0 h -0.154 c -0.324,0.542 -0.726,0.941 -1.21,1.204 -0.485,0.262 -1.06,0.394 -1.728,0.394 -1.149,0 -2.05,-0.392 -2.699,-1.171 -0.648,-0.782 -0.975,-1.86 -0.975,-3.242 0,-1.377 0.338,-2.472 1.018,-3.285 0.677,-0.815 1.585,-1.22 2.72,-1.22 0.586,0 1.139,0.123 1.657,0.366 0.518,0.242 1.012,0.614 1.479,1.117 L 0.272,-5.915 C 0.228,-6.105 0.194,-6.298 0.17,-6.499 0.147,-6.698 0.131,-6.901 0.123,-7.114 -0.44,-7.432 -1.005,-7.667 -1.574,-7.82 c -0.567,-0.154 -1.153,-0.232 -1.759,-0.232 -1.59,0 -2.835,0.461 -3.742,1.385 -0.903,0.922 -1.358,2.184 -1.358,3.787 0,1.584 0.476,2.833 1.43,3.746 0.952,0.913 2.255,1.368 3.911,1.368 0.578,0 1.152,-0.064 1.723,-0.19 C -0.796,1.916 -0.208,1.718 0.399,1.452 0.3,1.257 0.218,1.036 0.154,0.796 0.091,0.559 0.039,0.293 0,0"
           style="fill:#5d6161;fill-opacity:1;fill-rule:nonzero;stroke:none"
           id="path14953" />
      </g>
      <g
         id="g14955"
         transform="matrix(0.44988181,0,0,-0.44988178,33.072999,30.280735)">
        <path
           d="m 0,0 -0.007,-0.134 c 0,-0.947 0.208,-1.679 0.627,-2.198 0.415,-0.522 1,-0.782 1.755,-0.782 0.451,0 0.861,0.081 1.228,0.243 0.37,0.165 0.667,0.397 0.895,0.693 L 4.689,-2.229 C 4.666,-2.324 4.646,-2.433 4.628,-2.553 4.613,-2.678 4.593,-2.849 4.569,-3.064 4.209,-3.287 3.814,-3.455 3.384,-3.567 2.955,-3.681 2.497,-3.737 2.015,-3.737 c -1.088,0 -1.938,0.313 -2.554,0.944 -0.615,0.634 -0.922,1.505 -0.922,2.617 0,1.14 0.307,2.05 0.919,2.737 C 0.07,3.245 0.89,3.589 1.916,3.589 2.875,3.589 3.627,3.31 4.169,2.745 4.709,2.184 4.981,1.402 4.981,0.402 4.981,0.288 4.978,0.195 4.977,0.14 4.974,0.078 4.971,0.022 4.964,-0.031 H 4.83 C 3.469,0.008 2.473,0.028 1.841,0.028 1.612,0.028 1.364,0.028 1.102,0.02 0.842,0.017 0.472,0.008 0,0 m 0.036,0.595 h 0.703 c 0.378,0 1.082,0.008 2.114,0.022 0.297,0 0.526,0.003 0.687,0.006 0.01,0.086 0.017,0.165 0.021,0.234 0.006,0.07 0.008,0.135 0.008,0.185 0,0.603 -0.15,1.084 -0.458,1.441 C 2.806,2.843 2.402,3.022 1.902,3.022 1.348,3.022 0.912,2.813 0.592,2.399 0.272,1.98 0.088,1.383 0.036,0.595"
           style="fill:#5d6161;fill-opacity:1;fill-rule:nonzero;stroke:none"
           id="path14957" />
      </g>
      <g
         id="g14959"
         transform="matrix(0.44988181,0,0,-0.44988178,35.910764,31.876465)">
        <path
           d="m 0,0 c 0.036,0.304 0.066,0.779 0.084,1.433 0.019,0.653 0.029,1.709 0.029,3.17 0,0.611 -0.01,1.083 -0.029,1.413 C 0.066,6.346 0.036,6.661 -0.008,6.957 0.11,6.94 0.232,6.927 0.359,6.918 0.483,6.907 0.62,6.904 0.765,6.904 c 0.141,0 0.277,0.003 0.403,0.014 0.124,0.009 0.24,0.022 0.35,0.039 C 1.48,6.709 1.451,6.477 1.431,6.265 1.415,6.049 1.405,5.854 1.405,5.667 V 5.491 c 0.283,0.553 0.609,0.961 0.982,1.232 0.368,0.265 0.801,0.399 1.294,0.399 0.091,0 0.158,0 0.204,-0.003 C 3.928,7.116 3.973,7.108 4.015,7.1 3.994,6.938 3.983,6.801 3.973,6.7 3.963,6.6 3.959,6.505 3.959,6.421 3.959,6.279 3.977,6.052 4.015,5.745 L 4.02,5.709 C 3.79,5.767 3.595,5.807 3.44,5.832 3.285,5.854 3.152,5.868 3.044,5.868 2.826,5.868 2.62,5.823 2.423,5.739 2.226,5.653 2.057,5.533 1.915,5.376 1.722,5.164 1.582,4.932 1.5,4.684 1.417,4.432 1.376,4.072 1.376,3.603 V 3.315 2.086 C 1.38,1.776 1.394,1.449 1.419,1.1 1.441,0.748 1.47,0.383 1.504,0 1.324,0.028 1.174,0.047 1.056,0.056 0.94,0.064 0.827,0.073 0.725,0.073 0.609,0.073 0.496,0.064 0.378,0.053 0.264,0.042 0.137,0.025 0,0"
           style="fill:#5d6161;fill-opacity:1;fill-rule:nonzero;stroke:none"
           id="path14961" />
      </g>
      <g
         id="g14963"
         transform="matrix(0.44988181,0,0,-0.44988178,38.430685,29.03299)">
        <path
           d="m 0,0 h -0.204 c -0.161,0 -0.324,-0.008 -0.49,-0.02 -0.163,-0.014 -0.328,-0.036 -0.494,-0.067 0.008,0.051 0.013,0.098 0.021,0.148 0.002,0.051 0.004,0.12 0.004,0.215 0,0.104 -0.002,0.179 -0.004,0.229 C -1.175,0.55 -1.18,0.595 -1.188,0.631 -1.001,0.603 -0.807,0.581 -0.61,0.564 -0.415,0.547 -0.211,0.539 0,0.539 v 0.547 c 0,0.118 -0.004,0.271 -0.015,0.461 -0.014,0.19 -0.028,0.4 -0.046,0.631 C 0.198,2.254 0.451,2.346 0.698,2.461 0.944,2.57 1.18,2.698 1.406,2.846 1.359,2.494 1.325,2.181 1.3,1.908 1.276,1.634 1.265,1.399 1.265,1.206 V 0.539 c 0.312,0 0.598,0.008 0.858,0.025 C 2.384,0.581 2.625,0.606 2.847,0.637 2.838,0.544 2.831,0.472 2.826,0.419 2.821,0.366 2.817,0.321 2.817,0.276 2.817,0.207 2.826,0.1 2.84,-0.042 2.845,-0.067 2.847,-0.081 2.847,-0.087 2.63,-0.056 2.409,-0.034 2.183,-0.02 1.959,-0.008 1.736,0 1.514,0 H 1.251 L 1.18,-3.561 V -3.91 c 0,-0.754 0.087,-1.268 0.258,-1.531 0.174,-0.265 0.477,-0.396 0.912,-0.396 0.071,0 0.157,0.002 0.256,0.014 0.099,0.011 0.232,0.028 0.396,0.056 L 3.011,-6.265 C 2.783,-6.337 2.56,-6.399 2.342,-6.438 2.125,-6.48 1.91,-6.499 1.697,-6.499 c -0.619,0 -1.074,0.167 -1.365,0.497 -0.292,0.332 -0.437,0.849 -0.437,1.553 0,0.201 0.01,0.556 0.03,1.061 0.018,0.511 0.03,0.913 0.035,1.209 z"
           style="fill:#5d6161;fill-opacity:1;fill-rule:nonzero;stroke:none"
           id="path14965" />
      </g>
      <g
         id="g14967"
         transform="matrix(0.44988181,0,0,-0.44988178,40.273358,27.642044)">
        <path
           d="M 0,0 C 0,0.237 0.077,0.433 0.23,0.586 0.384,0.74 0.58,0.818 0.816,0.818 1.081,0.818 1.288,0.743 1.437,0.598 1.586,0.45 1.659,0.246 1.659,-0.011 1.659,-0.246 1.589,-0.43 1.445,-0.57 1.304,-0.709 1.114,-0.779 0.873,-0.779 c -0.267,0 -0.479,0.07 -0.636,0.212 C 0.078,-0.425 0,-0.235 0,0 m 0.035,-9.412 c 0.033,0.41 0.059,0.96 0.075,1.642 0.017,0.681 0.025,1.536 0.025,2.558 0,0.665 -0.008,1.21 -0.025,1.626 -0.016,0.422 -0.042,0.796 -0.075,1.131 0.109,-0.017 0.222,-0.031 0.341,-0.039 0.118,-0.011 0.245,-0.014 0.382,-0.014 0.138,0 0.267,0.003 0.391,0.014 0.125,0.008 0.239,0.022 0.347,0.039 C 1.464,-2.759 1.44,-3.092 1.422,-3.449 1.405,-3.807 1.398,-4.332 1.398,-5.03 1.398,-5.999 1.405,-6.843 1.422,-7.56 1.44,-8.281 1.464,-8.896 1.496,-9.412 1.359,-9.387 1.23,-9.37 1.112,-9.359 0.987,-9.348 0.873,-9.34 0.758,-9.34 0.645,-9.34 0.529,-9.348 0.415,-9.359 0.299,-9.37 0.172,-9.387 0.035,-9.412"
           style="fill:#5d6161;fill-opacity:1;fill-rule:nonzero;stroke:none"
           id="path14969" />
      </g>
      <g
         id="g14971"
         transform="matrix(0.44988181,0,0,-0.44988178,42.018628,31.876465)">
        <path
           d="M 0,0 C 0.039,0.38 0.066,0.802 0.082,1.271 0.098,1.74 0.108,2.469 0.108,3.469 v 2.896 h -0.157 c -0.141,0 -0.3,-0.011 -0.472,-0.025 -0.173,-0.02 -0.369,-0.042 -0.585,-0.075 0.01,0.058 0.018,0.123 0.029,0.184 0.009,0.061 0.013,0.12 0.013,0.176 0,0.059 -0.004,0.114 -0.013,0.173 -0.011,0.061 -0.019,0.114 -0.029,0.159 0.137,-0.017 0.282,-0.03 0.432,-0.039 0.152,-0.011 0.316,-0.014 0.498,-0.014 h 0.284 c 0.041,1.101 0.333,2.042 0.87,2.821 0.541,0.782 1.131,1.17 1.776,1.17 0.107,0 0.215,-0.005 0.32,-0.022 C 3.176,10.862 3.282,10.839 3.391,10.811 3.353,10.636 3.319,10.443 3.289,10.231 3.257,10.024 3.227,9.792 3.201,9.535 3.019,9.611 2.847,9.666 2.683,9.706 2.515,9.745 2.36,9.761 2.213,9.761 1.874,9.761 1.617,9.666 1.444,9.474 1.271,9.284 1.184,8.993 1.184,8.613 1.184,8.516 1.19,8.412 1.2,8.301 1.209,8.186 1.223,8.066 1.241,7.946 L 1.391,6.904 H 1.74 c 0.219,0 0.432,0.003 0.634,0.014 C 2.575,6.927 2.775,6.94 2.972,6.957 2.954,6.907 2.939,6.851 2.928,6.795 2.92,6.739 2.916,6.678 2.916,6.611 2.916,6.547 2.92,6.482 2.928,6.427 2.939,6.371 2.952,6.315 2.966,6.265 2.691,6.298 2.442,6.32 2.216,6.34 1.993,6.354 1.783,6.365 1.591,6.365 h -0.2 V 3.91 C 1.391,3.176 1.399,2.48 1.413,1.827 1.427,1.173 1.447,0.564 1.476,0 1.339,0.022 1.212,0.036 1.089,0.05 0.971,0.064 0.853,0.073 0.739,0.073 0.624,0.073 0.508,0.064 0.384,0.053 0.261,0.042 0.133,0.025 0,0"
           style="fill:#5d6161;fill-opacity:1;fill-rule:nonzero;stroke:none"
           id="path14973" />
      </g>
      <g
         id="g14975"
         transform="matrix(0.44988181,0,0,-0.44988178,43.808481,27.642044)">
        <path
           d="M 0,0 C 0,0.237 0.08,0.433 0.232,0.586 0.387,0.74 0.58,0.818 0.818,0.818 1.081,0.818 1.29,0.743 1.44,0.598 1.588,0.45 1.662,0.246 1.662,-0.011 1.662,-0.246 1.591,-0.43 1.448,-0.57 1.307,-0.709 1.116,-0.779 0.876,-0.779 0.61,-0.779 0.399,-0.709 0.24,-0.567 0.082,-0.425 0,-0.235 0,0 m 0.038,-9.412 c 0.032,0.41 0.057,0.96 0.072,1.642 0.017,0.681 0.027,1.536 0.027,2.558 0,0.665 -0.01,1.21 -0.027,1.626 -0.015,0.422 -0.04,0.796 -0.072,1.131 0.109,-0.017 0.222,-0.031 0.339,-0.039 0.12,-0.011 0.246,-0.014 0.383,-0.014 0.137,0 0.268,0.003 0.389,0.014 0.125,0.008 0.24,0.022 0.349,0.039 C 1.466,-2.759 1.44,-3.092 1.424,-3.449 1.406,-3.807 1.401,-4.332 1.401,-5.03 1.401,-5.999 1.406,-6.843 1.424,-7.56 1.44,-8.281 1.466,-8.896 1.498,-9.412 1.362,-9.387 1.233,-9.37 1.11,-9.359 0.99,-9.348 0.876,-9.34 0.76,-9.34 0.647,-9.34 0.531,-9.348 0.416,-9.359 0.299,-9.37 0.175,-9.387 0.038,-9.412"
           style="fill:#5d6161;fill-opacity:1;fill-rule:nonzero;stroke:none"
           id="path14977" />
      </g>
      <g
         id="g14979"
         transform="matrix(0.44988181,0,0,-0.44988178,47.843111,31.289686)">
        <path
           d="M 0,0 0.128,-0.028 0.014,-0.857 c -0.279,-0.199 -0.62,-0.352 -1.022,-0.461 -0.402,-0.109 -0.845,-0.165 -1.331,-0.165 -1.078,0 -1.951,0.327 -2.613,0.977 -0.662,0.648 -0.993,1.503 -0.993,2.556 0,1.19 0.342,2.117 1.022,2.787 0.681,0.673 1.623,1.009 2.831,1.009 0.444,0 0.862,-0.048 1.251,-0.146 C -0.45,5.603 -0.094,5.46 0.233,5.279 0.166,5.089 0.109,4.885 0.056,4.661 0.007,4.441 -0.038,4.201 -0.071,3.938 h -0.176 c -0.115,0.45 -0.32,0.788 -0.615,1.014 -0.296,0.226 -0.677,0.341 -1.146,0.341 -0.77,0 -1.367,-0.266 -1.796,-0.805 -0.429,-0.539 -0.644,-1.29 -0.644,-2.259 0,-0.969 0.228,-1.726 0.676,-2.271 0.454,-0.545 1.082,-0.815 1.887,-0.815 0.398,0 0.752,0.072 1.069,0.215 C -0.499,-0.494 -0.226,-0.279 0,0"
           style="fill:#5d6161;fill-opacity:1;fill-rule:nonzero;stroke:none"
           id="path14981" />
      </g>
      <g
         id="g14983"
         transform="matrix(0.44988181,0,0,-0.44988178,50.191493,31.47436)">
        <path
           d="m 0,0 c -0.3,-0.355 -0.641,-0.626 -1.014,-0.81 -0.373,-0.182 -0.772,-0.274 -1.198,-0.274 -0.595,0 -1.078,0.176 -1.447,0.528 -0.367,0.352 -0.553,0.81 -0.553,1.38 0,0.614 0.157,1.075 0.472,1.382 0.313,0.308 0.944,0.567 1.89,0.78 l 1.325,0.29 c 0.209,0.042 0.356,0.12 0.443,0.232 C 0,3.62 0.046,3.79 0.046,4.013 c 0,0.514 -0.147,0.914 -0.438,1.21 -0.289,0.29 -0.693,0.438 -1.21,0.438 -0.41,0 -0.769,-0.103 -1.069,-0.301 -0.306,-0.201 -0.53,-0.484 -0.675,-0.847 l -0.306,0.112 0.078,0.788 c 0.308,0.282 0.655,0.497 1.041,0.642 0.388,0.145 0.821,0.218 1.293,0.218 0.881,0 1.512,-0.179 1.898,-0.539 C 1.042,5.376 1.236,4.787 1.236,3.958 V 0.517 c 0,-0.355 0.042,-0.581 0.127,-0.679 0.087,-0.101 0.251,-0.151 0.496,-0.151 h 0.057 c 0.128,0.009 0.25,0.017 0.362,0.017 V -0.603 C 2.01,-0.726 1.767,-0.818 1.549,-0.877 1.331,-0.936 1.134,-0.966 0.959,-0.966 0.672,-0.966 0.45,-0.888 0.296,-0.729 0.141,-0.575 0.046,-0.33 0,0 M 0,2.782 -0.87,2.611 C -1.549,2.483 -2.042,2.296 -2.353,2.047 c -0.314,-0.248 -0.468,-0.581 -0.468,-1 0,-0.382 0.106,-0.695 0.32,-0.927 0.214,-0.232 0.5,-0.346 0.859,-0.346 0.498,0 0.896,0.15 1.195,0.455 C -0.148,0.531 0,0.936 0,1.449 Z"
           style="fill:#5d6161;fill-opacity:1;fill-rule:nonzero;stroke:none"
           id="path14985" />
      </g>
      <g
         id="g14987"
         transform="matrix(0.44988181,0,0,-0.44988178,51.819932,29.03299)">
        <path
           d="m 0,0 h -0.207 c -0.162,0 -0.325,-0.008 -0.488,-0.02 -0.165,-0.014 -0.333,-0.036 -0.499,-0.067 0.013,0.051 0.018,0.098 0.024,0.148 0.003,0.051 0.005,0.12 0.005,0.215 0,0.104 -0.002,0.179 -0.005,0.229 -0.006,0.045 -0.011,0.09 -0.024,0.126 0.19,-0.028 0.384,-0.05 0.579,-0.067 C -0.418,0.547 -0.214,0.539 0,0.539 v 0.547 c 0,0.118 -0.007,0.271 -0.018,0.461 -0.013,0.19 -0.028,0.4 -0.045,0.631 C 0.195,2.254 0.448,2.346 0.694,2.461 0.94,2.57 1.179,2.698 1.405,2.846 1.356,2.494 1.322,2.181 1.297,1.908 1.274,1.634 1.261,1.399 1.261,1.206 V 0.539 c 0.313,0 0.6,0.008 0.86,0.025 0.259,0.017 0.5,0.042 0.725,0.073 C 2.833,0.544 2.826,0.472 2.822,0.419 2.819,0.366 2.815,0.321 2.815,0.276 2.815,0.207 2.822,0.1 2.836,-0.042 2.842,-0.067 2.846,-0.081 2.846,-0.087 2.628,-0.056 2.405,-0.034 2.18,-0.02 1.956,-0.008 1.733,0 1.511,0 H 1.247 L 1.179,-3.561 V -3.91 c 0,-0.754 0.085,-1.268 0.257,-1.531 0.173,-0.265 0.476,-0.396 0.911,-0.396 0.072,0 0.157,0.002 0.256,0.014 0.099,0.011 0.23,0.028 0.398,0.056 L 3.008,-6.265 C 2.78,-6.337 2.558,-6.399 2.339,-6.438 2.124,-6.48 1.908,-6.499 1.694,-6.499 c -0.619,0 -1.074,0.167 -1.364,0.497 -0.291,0.332 -0.438,0.849 -0.438,1.553 0,0.201 0.009,0.556 0.03,1.061 0.018,0.511 0.029,0.913 0.035,1.209 z"
           style="fill:#5d6161;fill-opacity:1;fill-rule:nonzero;stroke:none"
           id="path14989" />
      </g>
      <g
         id="g14991"
         transform="matrix(0.44988181,0,0,-0.44988178,53.660712,27.642044)">
        <path
           d="M 0,0 C 0,0.237 0.078,0.433 0.232,0.586 0.387,0.74 0.58,0.818 0.817,0.818 1.081,0.818 1.29,0.743 1.44,0.598 1.588,0.45 1.662,0.246 1.662,-0.011 1.662,-0.246 1.591,-0.43 1.447,-0.57 1.307,-0.709 1.116,-0.779 0.876,-0.779 0.609,-0.779 0.398,-0.709 0.24,-0.567 0.081,-0.425 0,-0.235 0,0 m 0.036,-9.412 c 0.034,0.41 0.059,0.96 0.074,1.642 0.02,0.681 0.025,1.536 0.025,2.558 0,0.665 -0.005,1.21 -0.025,1.626 -0.015,0.422 -0.04,0.796 -0.074,1.131 0.109,-0.017 0.222,-0.031 0.341,-0.039 0.119,-0.011 0.246,-0.014 0.383,-0.014 0.139,0 0.266,0.003 0.389,0.014 0.126,0.008 0.24,0.022 0.349,0.039 C 1.465,-2.759 1.441,-3.092 1.424,-3.449 1.405,-3.807 1.399,-4.332 1.399,-5.03 1.399,-5.999 1.405,-6.843 1.424,-7.56 1.441,-8.281 1.465,-8.896 1.498,-9.412 1.36,-9.387 1.234,-9.37 1.113,-9.359 0.991,-9.348 0.876,-9.34 0.76,-9.34 0.648,-9.34 0.531,-9.348 0.415,-9.359 0.299,-9.37 0.175,-9.387 0.036,-9.412"
           style="fill:#5d6161;fill-opacity:1;fill-rule:nonzero;stroke:none"
           id="path14993" />
      </g>
      <g
         id="g14995"
         transform="matrix(0.44988181,0,0,-0.44988178,58.263273,30.315916)">
        <path
           d="m 0,0 c 0,-1.106 -0.323,-1.991 -0.972,-2.653 -0.648,-0.665 -1.517,-0.994 -2.602,-0.994 -1.114,0 -1.988,0.323 -2.624,0.971 -0.634,0.651 -0.952,1.542 -0.952,2.676 0,1.112 0.324,2 0.975,2.667 0.649,0.668 1.516,1 2.601,1 1.106,0 1.976,-0.327 2.616,-0.98 C -0.32,2.031 0,1.134 0,0 m -1.496,0 c 0,0.994 -0.183,1.762 -0.543,2.31 -0.363,0.544 -0.87,0.818 -1.522,0.818 -0.658,0 -1.17,-0.276 -1.539,-0.821 C -5.469,1.757 -5.653,0.989 -5.653,0 c 0,-0.972 0.184,-1.734 0.556,-2.285 0.37,-0.547 0.882,-0.824 1.536,-0.824 0.649,0 1.152,0.277 1.517,0.824 0.364,0.551 0.548,1.313 0.548,2.285"
           style="fill:#5d6161;fill-opacity:1;fill-rule:nonzero;stroke:none"
           id="path14997" />
      </g>
      <g
         id="g14999"
         transform="matrix(0.44988181,0,0,-0.44988178,58.895268,31.876465)">
        <path
           d="M 0,0 C 0.032,0.38 0.057,0.877 0.073,1.494 0.091,2.111 0.099,3.008 0.099,4.187 0.099,4.966 0.091,5.544 0.073,5.918 0.057,6.295 0.032,6.642 0,6.957 0.099,6.94 0.205,6.927 0.323,6.918 0.439,6.907 0.564,6.904 0.695,6.904 0.818,6.904 0.936,6.907 1.05,6.918 1.163,6.927 1.269,6.94 1.37,6.957 1.36,6.622 1.35,6.371 1.348,6.2 1.343,6.03 1.339,5.868 1.334,5.709 1.623,6.172 1.977,6.527 2.399,6.773 2.819,7.016 3.292,7.136 3.815,7.136 4.177,7.136 4.507,7.074 4.814,6.946 5.119,6.818 5.371,6.639 5.576,6.404 5.735,6.211 5.851,5.994 5.921,5.748 5.988,5.505 6.023,5.114 6.023,4.575 V 2.441 C 6.023,2.014 6.029,1.603 6.041,1.204 6.052,0.802 6.07,0.402 6.094,0 5.96,0.025 5.834,0.042 5.714,0.053 5.593,0.064 5.478,0.073 5.369,0.073 5.262,0.073 5.149,0.064 5.033,0.053 4.917,0.042 4.787,0.025 4.647,0 4.682,0.824 4.71,1.477 4.724,1.969 4.738,2.458 4.745,2.888 4.745,3.254 v 0.74 C 4.745,4.494 4.719,4.862 4.668,5.1 4.615,5.332 4.53,5.524 4.411,5.684 4.265,5.862 4.087,5.999 3.881,6.094 3.671,6.189 3.438,6.234 3.178,6.234 2.549,6.234 2.089,6.002 1.797,5.536 1.507,5.069 1.363,4.332 1.363,3.324 1.363,2.631 1.367,2.019 1.378,1.489 1.391,0.955 1.41,0.461 1.433,0 1.307,0.022 1.181,0.036 1.064,0.05 0.945,0.064 0.832,0.073 0.723,0.073 0.609,0.073 0.496,0.064 0.378,0.053 0.264,0.042 0.137,0.025 0,0"
           style="fill:#5d6161;fill-opacity:1;fill-rule:nonzero;stroke:none"
           id="path15001" />
      </g>
    </g>
  </g>
</svg>
